export const MelodyNotes = [
    {
        "duration": 0.24895833333333334,
        "durationTicks": 239,
        "midi": 84,
        "name": "C6",
        "ticks": 0,
        "time": 0,
        "velocity": 0.7322834645669292
    },
    {
        "duration": 0.203125,
        "durationTicks": 195,
        "midi": 72,
        "name": "C5",
        "ticks": 240,
        "time": 0.25,
        "velocity": 0.7322834645669292
    },
    {
        "duration": 0.22499999999999998,
        "durationTicks": 216,
        "midi": 79,
        "name": "G5",
        "ticks": 480,
        "time": 0.5,
        "velocity": 0.7322834645669292
    },
    {
        "duration": 0.26979166666666665,
        "durationTicks": 259,
        "midi": 79,
        "name": "G5",
        "ticks": 960,
        "time": 1,
        "velocity": 0.7322834645669292
    },
    {
        "duration": 0.29374999999999996,
        "durationTicks": 282,
        "midi": 79,
        "name": "G5",
        "ticks": 1440,
        "time": 1.5,
        "velocity": 0.7322834645669292
    },
    {
        "duration": 0.24791666666666679,
        "durationTicks": 238,
        "midi": 79,
        "name": "G5",
        "ticks": 1920,
        "time": 2,
        "velocity": 0.7322834645669292
    },
    {
        "duration": 0.2718750000000001,
        "durationTicks": 261,
        "midi": 72,
        "name": "C5",
        "ticks": 2160,
        "time": 2.25,
        "velocity": 0.7322834645669292
    },
    {
        "duration": 0.24791666666666679,
        "durationTicks": 238,
        "midi": 79,
        "name": "G5",
        "ticks": 2400,
        "time": 2.5,
        "velocity": 0.7322834645669292
    },
    {
        "duration": 0.2250000000000001,
        "durationTicks": 216,
        "midi": 74,
        "name": "D5",
        "ticks": 2640,
        "time": 2.75,
        "velocity": 0.7322834645669292
    },
    {
        "duration": 0.25,
        "durationTicks": 240,
        "midi": 79,
        "name": "G5",
        "ticks": 2880,
        "time": 3,
        "velocity": 0.7322834645669292
    },
    {
        "duration": 0.24791666666666679,
        "durationTicks": 238,
        "midi": 75,
        "name": "D#5",
        "ticks": 3120,
        "time": 3.25,
        "velocity": 0.7322834645669292
    },
    {
        "duration": 0.2697916666666669,
        "durationTicks": 259,
        "midi": 79,
        "name": "G5",
        "ticks": 3360,
        "time": 3.5,
        "velocity": 0.7322834645669292
    },
    {
        "duration": 0.2687499999999998,
        "durationTicks": 258,
        "midi": 74,
        "name": "D5",
        "ticks": 3600,
        "time": 3.75,
        "velocity": 0.7322834645669292
    },
    {
        "duration": 0.24791666666666679,
        "durationTicks": 238,
        "midi": 84,
        "name": "C6",
        "ticks": 3840,
        "time": 4,
        "velocity": 0.7322834645669292
    },
    {
        "duration": 0.26979166666666643,
        "durationTicks": 259,
        "midi": 72,
        "name": "C5",
        "ticks": 4080,
        "time": 4.25,
        "velocity": 0.7322834645669292
    },
    {
        "duration": 0.22499999999999964,
        "durationTicks": 216,
        "midi": 75,
        "name": "D#5",
        "ticks": 4320,
        "time": 4.5,
        "velocity": 0.7322834645669292
    },
    {
        "duration": 0.24791666666666679,
        "durationTicks": 238,
        "midi": 75,
        "name": "D#5",
        "ticks": 4800,
        "time": 5,
        "velocity": 0.7322834645669292
    },
    {
        "duration": 0.26979166666666643,
        "durationTicks": 259,
        "midi": 75,
        "name": "D#5",
        "ticks": 5280,
        "time": 5.5,
        "velocity": 0.7322834645669292
    },
    {
        "duration": 0.13541666666666696,
        "durationTicks": 130,
        "midi": 74,
        "name": "D5",
        "ticks": 5520,
        "time": 5.75,
        "velocity": 0.7322834645669292
    },
    {
        "duration": 0.24791666666666679,
        "durationTicks": 238,
        "midi": 75,
        "name": "D#5",
        "ticks": 5760,
        "time": 6,
        "velocity": 0.7322834645669292
    },
    {
        "duration": 0.26979166666666643,
        "durationTicks": 259,
        "midi": 75,
        "name": "D#5",
        "ticks": 6240,
        "time": 6.5,
        "velocity": 0.7322834645669292
    },
    {
        "duration": 0.29270833333333357,
        "durationTicks": 281,
        "midi": 82,
        "name": "A#5",
        "ticks": 6720,
        "time": 7,
        "velocity": 0.7322834645669292
    },
    {
        "duration": 0.2489583333333334,
        "durationTicks": 239,
        "midi": 82,
        "name": "A#5",
        "ticks": 7200,
        "time": 7.5,
        "velocity": 0.7322834645669292
    },
    {
        "duration": 0.15833333333333321,
        "durationTicks": 152,
        "midi": 84,
        "name": "C6",
        "ticks": 7440,
        "time": 7.75,
        "velocity": 0.7322834645669292
    },
    {
        "duration": 0.2489583333333325,
        "durationTicks": 239,
        "midi": 84,
        "name": "C6",
        "ticks": 7680,
        "time": 8,
        "velocity": 0.7322834645669292
    },
    {
        "duration": 0.203125,
        "durationTicks": 195,
        "midi": 72,
        "name": "C5",
        "ticks": 7920,
        "time": 8.25,
        "velocity": 0.7322834645669292
    },
    {
        "duration": 0.22499999999999964,
        "durationTicks": 216,
        "midi": 79,
        "name": "G5",
        "ticks": 8160,
        "time": 8.5,
        "velocity": 0.7322834645669292
    },
    {
        "duration": 0.26979166666666643,
        "durationTicks": 259,
        "midi": 79,
        "name": "G5",
        "ticks": 8640,
        "time": 9,
        "velocity": 0.7322834645669292
    },
    {
        "duration": 0.2937499999999993,
        "durationTicks": 282,
        "midi": 79,
        "name": "G5",
        "ticks": 9120,
        "time": 9.5,
        "velocity": 0.7322834645669292
    },
    {
        "duration": 0.24791666666666679,
        "durationTicks": 238,
        "midi": 79,
        "name": "G5",
        "ticks": 9600,
        "time": 10,
        "velocity": 0.7322834645669292
    },
    {
        "duration": 0.27187499999999964,
        "durationTicks": 261,
        "midi": 72,
        "name": "C5",
        "ticks": 9840,
        "time": 10.25,
        "velocity": 0.7322834645669292
    },
    {
        "duration": 0.24791666666666679,
        "durationTicks": 238,
        "midi": 79,
        "name": "G5",
        "ticks": 10080,
        "time": 10.5,
        "velocity": 0.7322834645669292
    },
    {
        "duration": 0.22499999999999964,
        "durationTicks": 216,
        "midi": 74,
        "name": "D5",
        "ticks": 10320,
        "time": 10.75,
        "velocity": 0.7322834645669292
    },
    {
        "duration": 0.25,
        "durationTicks": 240,
        "midi": 79,
        "name": "G5",
        "ticks": 10560,
        "time": 11,
        "velocity": 0.7322834645669292
    },
    {
        "duration": 0.24791666666666679,
        "durationTicks": 238,
        "midi": 75,
        "name": "D#5",
        "ticks": 10800,
        "time": 11.25,
        "velocity": 0.7322834645669292
    },
    {
        "duration": 0.26979166666666643,
        "durationTicks": 259,
        "midi": 79,
        "name": "G5",
        "ticks": 11040,
        "time": 11.5,
        "velocity": 0.7322834645669292
    },
    {
        "duration": 0.2687500000000007,
        "durationTicks": 258,
        "midi": 74,
        "name": "D5",
        "ticks": 11280,
        "time": 11.75,
        "velocity": 0.7322834645669292
    },
    {
        "duration": 0.24791666666666679,
        "durationTicks": 238,
        "midi": 84,
        "name": "C6",
        "ticks": 11520,
        "time": 12,
        "velocity": 0.7322834645669292
    },
    {
        "duration": 0.26979166666666643,
        "durationTicks": 259,
        "midi": 72,
        "name": "C5",
        "ticks": 11760,
        "time": 12.25,
        "velocity": 0.7322834645669292
    },
    {
        "duration": 0.22499999999999964,
        "durationTicks": 216,
        "midi": 75,
        "name": "D#5",
        "ticks": 12000,
        "time": 12.5,
        "velocity": 0.7322834645669292
    },
    {
        "duration": 0.24791666666666679,
        "durationTicks": 238,
        "midi": 75,
        "name": "D#5",
        "ticks": 12480,
        "time": 13,
        "velocity": 0.7322834645669292
    },
    {
        "duration": 0.26979166666666643,
        "durationTicks": 259,
        "midi": 75,
        "name": "D#5",
        "ticks": 12960,
        "time": 13.5,
        "velocity": 0.7322834645669292
    },
    {
        "duration": 0.13541666666666607,
        "durationTicks": 130,
        "midi": 74,
        "name": "D5",
        "ticks": 13200,
        "time": 13.75,
        "velocity": 0.7322834645669292
    },
    {
        "duration": 0.24791666666666679,
        "durationTicks": 238,
        "midi": 75,
        "name": "D#5",
        "ticks": 13440,
        "time": 14,
        "velocity": 0.7322834645669292
    },
    {
        "duration": 0.26979166666666643,
        "durationTicks": 259,
        "midi": 75,
        "name": "D#5",
        "ticks": 13920,
        "time": 14.5,
        "velocity": 0.7322834645669292
    },
    {
        "duration": 0.29270833333333357,
        "durationTicks": 281,
        "midi": 82,
        "name": "A#5",
        "ticks": 14400,
        "time": 15,
        "velocity": 0.7322834645669292
    },
    {
        "duration": 0.2489583333333325,
        "durationTicks": 239,
        "midi": 82,
        "name": "A#5",
        "ticks": 14880,
        "time": 15.5,
        "velocity": 0.7322834645669292
    },
    {
        "duration": 0.15833333333333321,
        "durationTicks": 152,
        "midi": 84,
        "name": "C6",
        "ticks": 15120,
        "time": 15.75,
        "velocity": 0.7322834645669292
    },
    {
        "duration": 0.24895833333333428,
        "durationTicks": 239,
        "midi": 84,
        "name": "C6",
        "ticks": 15360,
        "time": 16,
        "velocity": 0.7322834645669292
    },
    {
        "duration": 0.203125,
        "durationTicks": 195,
        "midi": 72,
        "name": "C5",
        "ticks": 15600,
        "time": 16.25,
        "velocity": 0.7322834645669292
    },
    {
        "duration": 0.22500000000000142,
        "durationTicks": 216,
        "midi": 79,
        "name": "G5",
        "ticks": 15840,
        "time": 16.5,
        "velocity": 0.7322834645669292
    },
    {
        "duration": 0.26979166666666643,
        "durationTicks": 259,
        "midi": 79,
        "name": "G5",
        "ticks": 16320,
        "time": 17,
        "velocity": 0.7322834645669292
    },
    {
        "duration": 0.2937499999999993,
        "durationTicks": 282,
        "midi": 79,
        "name": "G5",
        "ticks": 16800,
        "time": 17.5,
        "velocity": 0.7322834645669292
    },
    {
        "duration": 0.247916666666665,
        "durationTicks": 238,
        "midi": 79,
        "name": "G5",
        "ticks": 17280,
        "time": 18,
        "velocity": 0.7322834645669292
    },
    {
        "duration": 0.2718750000000014,
        "durationTicks": 261,
        "midi": 72,
        "name": "C5",
        "ticks": 17520,
        "time": 18.25,
        "velocity": 0.7322834645669292
    },
    {
        "duration": 0.247916666666665,
        "durationTicks": 238,
        "midi": 79,
        "name": "G5",
        "ticks": 17760,
        "time": 18.5,
        "velocity": 0.7322834645669292
    },
    {
        "duration": 0.22500000000000142,
        "durationTicks": 216,
        "midi": 74,
        "name": "D5",
        "ticks": 18000,
        "time": 18.75,
        "velocity": 0.7322834645669292
    },
    {
        "duration": 0.25,
        "durationTicks": 240,
        "midi": 79,
        "name": "G5",
        "ticks": 18240,
        "time": 19,
        "velocity": 0.7322834645669292
    },
    {
        "duration": 0.247916666666665,
        "durationTicks": 238,
        "midi": 75,
        "name": "D#5",
        "ticks": 18480,
        "time": 19.25,
        "velocity": 0.7322834645669292
    },
    {
        "duration": 0.26979166666666643,
        "durationTicks": 259,
        "midi": 79,
        "name": "G5",
        "ticks": 18720,
        "time": 19.5,
        "velocity": 0.7322834645669292
    },
    {
        "duration": 0.2687500000000007,
        "durationTicks": 258,
        "midi": 74,
        "name": "D5",
        "ticks": 18960,
        "time": 19.75,
        "velocity": 0.7322834645669292
    },
    {
        "duration": 0.247916666666665,
        "durationTicks": 238,
        "midi": 84,
        "name": "C6",
        "ticks": 19200,
        "time": 20,
        "velocity": 0.7322834645669292
    },
    {
        "duration": 0.26979166666666643,
        "durationTicks": 259,
        "midi": 72,
        "name": "C5",
        "ticks": 19440,
        "time": 20.25,
        "velocity": 0.7322834645669292
    },
    {
        "duration": 0.22500000000000142,
        "durationTicks": 216,
        "midi": 75,
        "name": "D#5",
        "ticks": 19680,
        "time": 20.5,
        "velocity": 0.7322834645669292
    },
    {
        "duration": 0.247916666666665,
        "durationTicks": 238,
        "midi": 75,
        "name": "D#5",
        "ticks": 20160,
        "time": 21,
        "velocity": 0.7322834645669292
    },
    {
        "duration": 0.26979166666666643,
        "durationTicks": 259,
        "midi": 75,
        "name": "D#5",
        "ticks": 20640,
        "time": 21.5,
        "velocity": 0.7322834645669292
    },
    {
        "duration": 0.13541666666666785,
        "durationTicks": 130,
        "midi": 74,
        "name": "D5",
        "ticks": 20880,
        "time": 21.75,
        "velocity": 0.7322834645669292
    },
    {
        "duration": 0.247916666666665,
        "durationTicks": 238,
        "midi": 75,
        "name": "D#5",
        "ticks": 21120,
        "time": 22,
        "velocity": 0.7322834645669292
    },
    {
        "duration": 0.26979166666666643,
        "durationTicks": 259,
        "midi": 75,
        "name": "D#5",
        "ticks": 21600,
        "time": 22.5,
        "velocity": 0.7322834645669292
    },
    {
        "duration": 0.29270833333333357,
        "durationTicks": 281,
        "midi": 82,
        "name": "A#5",
        "ticks": 22080,
        "time": 23,
        "velocity": 0.7322834645669292
    },
    {
        "duration": 0.24895833333333428,
        "durationTicks": 239,
        "midi": 82,
        "name": "A#5",
        "ticks": 22560,
        "time": 23.5,
        "velocity": 0.7322834645669292
    },
    {
        "duration": 0.158333333333335,
        "durationTicks": 152,
        "midi": 84,
        "name": "C6",
        "ticks": 22800,
        "time": 23.75,
        "velocity": 0.7322834645669292
    },
    {
        "duration": 0.24895833333333428,
        "durationTicks": 239,
        "midi": 84,
        "name": "C6",
        "ticks": 23040,
        "time": 24,
        "velocity": 0.7322834645669292
    },
    {
        "duration": 0.203125,
        "durationTicks": 195,
        "midi": 72,
        "name": "C5",
        "ticks": 23280,
        "time": 24.25,
        "velocity": 0.7322834645669292
    },
    {
        "duration": 0.22500000000000142,
        "durationTicks": 216,
        "midi": 79,
        "name": "G5",
        "ticks": 23520,
        "time": 24.5,
        "velocity": 0.7322834645669292
    },
    {
        "duration": 0.26979166666666643,
        "durationTicks": 259,
        "midi": 79,
        "name": "G5",
        "ticks": 24000,
        "time": 25,
        "velocity": 0.7322834645669292
    },
    {
        "duration": 0.2937499999999993,
        "durationTicks": 282,
        "midi": 79,
        "name": "G5",
        "ticks": 24480,
        "time": 25.5,
        "velocity": 0.7322834645669292
    },
    {
        "duration": 0.247916666666665,
        "durationTicks": 238,
        "midi": 79,
        "name": "G5",
        "ticks": 24960,
        "time": 26,
        "velocity": 0.7322834645669292
    },
    {
        "duration": 0.2718750000000014,
        "durationTicks": 261,
        "midi": 72,
        "name": "C5",
        "ticks": 25200,
        "time": 26.25,
        "velocity": 0.7322834645669292
    },
    {
        "duration": 0.247916666666665,
        "durationTicks": 238,
        "midi": 79,
        "name": "G5",
        "ticks": 25440,
        "time": 26.5,
        "velocity": 0.7322834645669292
    },
    {
        "duration": 0.22500000000000142,
        "durationTicks": 216,
        "midi": 74,
        "name": "D5",
        "ticks": 25680,
        "time": 26.75,
        "velocity": 0.7322834645669292
    },
    {
        "duration": 0.25,
        "durationTicks": 240,
        "midi": 79,
        "name": "G5",
        "ticks": 25920,
        "time": 27,
        "velocity": 0.7322834645669292
    },
    {
        "duration": 0.247916666666665,
        "durationTicks": 238,
        "midi": 75,
        "name": "D#5",
        "ticks": 26160,
        "time": 27.25,
        "velocity": 0.7322834645669292
    },
    {
        "duration": 0.26979166666666643,
        "durationTicks": 259,
        "midi": 79,
        "name": "G5",
        "ticks": 26400,
        "time": 27.5,
        "velocity": 0.7322834645669292
    },
    {
        "duration": 0.2687500000000007,
        "durationTicks": 258,
        "midi": 74,
        "name": "D5",
        "ticks": 26640,
        "time": 27.75,
        "velocity": 0.7322834645669292
    },
    {
        "duration": 0.247916666666665,
        "durationTicks": 238,
        "midi": 84,
        "name": "C6",
        "ticks": 26880,
        "time": 28,
        "velocity": 0.7322834645669292
    },
    {
        "duration": 0.26979166666666643,
        "durationTicks": 259,
        "midi": 72,
        "name": "C5",
        "ticks": 27120,
        "time": 28.25,
        "velocity": 0.7322834645669292
    },
    {
        "duration": 0.22500000000000142,
        "durationTicks": 216,
        "midi": 75,
        "name": "D#5",
        "ticks": 27360,
        "time": 28.5,
        "velocity": 0.7322834645669292
    },
    {
        "duration": 0.247916666666665,
        "durationTicks": 238,
        "midi": 75,
        "name": "D#5",
        "ticks": 27840,
        "time": 29,
        "velocity": 0.7322834645669292
    },
    {
        "duration": 0.26979166666666643,
        "durationTicks": 259,
        "midi": 75,
        "name": "D#5",
        "ticks": 28320,
        "time": 29.5,
        "velocity": 0.7322834645669292
    },
    {
        "duration": 0.13541666666666785,
        "durationTicks": 130,
        "midi": 74,
        "name": "D5",
        "ticks": 28560,
        "time": 29.75,
        "velocity": 0.7322834645669292
    },
    {
        "duration": 0.247916666666665,
        "durationTicks": 238,
        "midi": 75,
        "name": "D#5",
        "ticks": 28800,
        "time": 30,
        "velocity": 0.7322834645669292
    },
    {
        "duration": 0.26979166666666643,
        "durationTicks": 259,
        "midi": 75,
        "name": "D#5",
        "ticks": 29280,
        "time": 30.5,
        "velocity": 0.7322834645669292
    },
    {
        "duration": 0.29270833333333357,
        "durationTicks": 281,
        "midi": 82,
        "name": "A#5",
        "ticks": 29760,
        "time": 31,
        "velocity": 0.7322834645669292
    },
    {
        "duration": 0.24895833333333428,
        "durationTicks": 239,
        "midi": 82,
        "name": "A#5",
        "ticks": 30240,
        "time": 31.5,
        "velocity": 0.7322834645669292
    },
    {
        "duration": 0.158333333333335,
        "durationTicks": 152,
        "midi": 84,
        "name": "C6",
        "ticks": 30480,
        "time": 31.75,
        "velocity": 0.7322834645669292
    },
    {
        "duration": 0.24895833333333428,
        "durationTicks": 239,
        "midi": 84,
        "name": "C6",
        "ticks": 30720,
        "time": 32,
        "velocity": 0.7322834645669292
    },
    {
        "duration": 0.203125,
        "durationTicks": 195,
        "midi": 72,
        "name": "C5",
        "ticks": 30960,
        "time": 32.25,
        "velocity": 0.7322834645669292
    },
    {
        "duration": 0.22500000000000142,
        "durationTicks": 216,
        "midi": 79,
        "name": "G5",
        "ticks": 31200,
        "time": 32.5,
        "velocity": 0.7322834645669292
    },
    {
        "duration": 0.26979166666667,
        "durationTicks": 259,
        "midi": 79,
        "name": "G5",
        "ticks": 31680,
        "time": 33,
        "velocity": 0.7322834645669292
    },
    {
        "duration": 0.29375000000000284,
        "durationTicks": 282,
        "midi": 79,
        "name": "G5",
        "ticks": 32160,
        "time": 33.5,
        "velocity": 0.7322834645669292
    },
    {
        "duration": 0.24791666666666856,
        "durationTicks": 238,
        "midi": 79,
        "name": "G5",
        "ticks": 32640,
        "time": 34,
        "velocity": 0.7322834645669292
    },
    {
        "duration": 0.2718750000000014,
        "durationTicks": 261,
        "midi": 72,
        "name": "C5",
        "ticks": 32880,
        "time": 34.25,
        "velocity": 0.7322834645669292
    },
    {
        "duration": 0.24791666666666856,
        "durationTicks": 238,
        "midi": 79,
        "name": "G5",
        "ticks": 33120,
        "time": 34.5,
        "velocity": 0.7322834645669292
    },
    {
        "duration": 0.22500000000000142,
        "durationTicks": 216,
        "midi": 74,
        "name": "D5",
        "ticks": 33360,
        "time": 34.75,
        "velocity": 0.7322834645669292
    },
    {
        "duration": 0.25,
        "durationTicks": 240,
        "midi": 79,
        "name": "G5",
        "ticks": 33600,
        "time": 35,
        "velocity": 0.7322834645669292
    },
    {
        "duration": 0.24791666666666856,
        "durationTicks": 238,
        "midi": 75,
        "name": "D#5",
        "ticks": 33840,
        "time": 35.25,
        "velocity": 0.7322834645669292
    },
    {
        "duration": 0.26979166666667,
        "durationTicks": 259,
        "midi": 79,
        "name": "G5",
        "ticks": 34080,
        "time": 35.5,
        "velocity": 0.7322834645669292
    },
    {
        "duration": 0.26874999999999716,
        "durationTicks": 258,
        "midi": 74,
        "name": "D5",
        "ticks": 34320,
        "time": 35.75,
        "velocity": 0.7322834645669292
    },
    {
        "duration": 0.24791666666666856,
        "durationTicks": 238,
        "midi": 84,
        "name": "C6",
        "ticks": 34560,
        "time": 36,
        "velocity": 0.7322834645669292
    },
    {
        "duration": 0.26979166666667,
        "durationTicks": 259,
        "midi": 72,
        "name": "C5",
        "ticks": 34800,
        "time": 36.25,
        "velocity": 0.7322834645669292
    },
    {
        "duration": 0.22500000000000142,
        "durationTicks": 216,
        "midi": 75,
        "name": "D#5",
        "ticks": 35040,
        "time": 36.5,
        "velocity": 0.7322834645669292
    },
    {
        "duration": 0.24791666666666856,
        "durationTicks": 238,
        "midi": 75,
        "name": "D#5",
        "ticks": 35520,
        "time": 37,
        "velocity": 0.7322834645669292
    },
    {
        "duration": 0.26979166666667,
        "durationTicks": 259,
        "midi": 75,
        "name": "D#5",
        "ticks": 36000,
        "time": 37.5,
        "velocity": 0.7322834645669292
    },
    {
        "duration": 0.1354166666666643,
        "durationTicks": 130,
        "midi": 74,
        "name": "D5",
        "ticks": 36240,
        "time": 37.75,
        "velocity": 0.7322834645669292
    },
    {
        "duration": 0.24791666666666856,
        "durationTicks": 238,
        "midi": 75,
        "name": "D#5",
        "ticks": 36480,
        "time": 38,
        "velocity": 0.7322834645669292
    },
    {
        "duration": 0.26979166666667,
        "durationTicks": 259,
        "midi": 75,
        "name": "D#5",
        "ticks": 36960,
        "time": 38.5,
        "velocity": 0.7322834645669292
    },
    {
        "duration": 0.29270833333333,
        "durationTicks": 281,
        "midi": 82,
        "name": "A#5",
        "ticks": 37440,
        "time": 39,
        "velocity": 0.7322834645669292
    },
    {
        "duration": 0.24895833333333428,
        "durationTicks": 239,
        "midi": 82,
        "name": "A#5",
        "ticks": 37920,
        "time": 39.5,
        "velocity": 0.7322834645669292
    },
    {
        "duration": 0.15833333333333144,
        "durationTicks": 152,
        "midi": 84,
        "name": "C6",
        "ticks": 38160,
        "time": 39.75,
        "velocity": 0.7322834645669292
    },
    {
        "duration": 0.24895833333333428,
        "durationTicks": 239,
        "midi": 84,
        "name": "C6",
        "ticks": 38400,
        "time": 40,
        "velocity": 0.7322834645669292
    },
    {
        "duration": 0.203125,
        "durationTicks": 195,
        "midi": 72,
        "name": "C5",
        "ticks": 38640,
        "time": 40.25,
        "velocity": 0.7322834645669292
    },
    {
        "duration": 0.22500000000000142,
        "durationTicks": 216,
        "midi": 79,
        "name": "G5",
        "ticks": 38880,
        "time": 40.5,
        "velocity": 0.7322834645669292
    },
    {
        "duration": 0.26979166666667,
        "durationTicks": 259,
        "midi": 79,
        "name": "G5",
        "ticks": 39360,
        "time": 41,
        "velocity": 0.7322834645669292
    },
    {
        "duration": 0.29375000000000284,
        "durationTicks": 282,
        "midi": 79,
        "name": "G5",
        "ticks": 39840,
        "time": 41.5,
        "velocity": 0.7322834645669292
    },
    {
        "duration": 0.24791666666666856,
        "durationTicks": 238,
        "midi": 79,
        "name": "G5",
        "ticks": 40320,
        "time": 42,
        "velocity": 0.7322834645669292
    },
    {
        "duration": 0.2718750000000014,
        "durationTicks": 261,
        "midi": 72,
        "name": "C5",
        "ticks": 40560,
        "time": 42.25,
        "velocity": 0.7322834645669292
    },
    {
        "duration": 0.24791666666666856,
        "durationTicks": 238,
        "midi": 79,
        "name": "G5",
        "ticks": 40800,
        "time": 42.5,
        "velocity": 0.7322834645669292
    },
    {
        "duration": 0.22500000000000142,
        "durationTicks": 216,
        "midi": 74,
        "name": "D5",
        "ticks": 41040,
        "time": 42.75,
        "velocity": 0.7322834645669292
    },
    {
        "duration": 0.25,
        "durationTicks": 240,
        "midi": 79,
        "name": "G5",
        "ticks": 41280,
        "time": 43,
        "velocity": 0.7322834645669292
    },
    {
        "duration": 0.24791666666666856,
        "durationTicks": 238,
        "midi": 75,
        "name": "D#5",
        "ticks": 41520,
        "time": 43.25,
        "velocity": 0.7322834645669292
    },
    {
        "duration": 0.26979166666667,
        "durationTicks": 259,
        "midi": 79,
        "name": "G5",
        "ticks": 41760,
        "time": 43.5,
        "velocity": 0.7322834645669292
    },
    {
        "duration": 0.26874999999999716,
        "durationTicks": 258,
        "midi": 74,
        "name": "D5",
        "ticks": 42000,
        "time": 43.75,
        "velocity": 0.7322834645669292
    },
    {
        "duration": 0.24791666666666856,
        "durationTicks": 238,
        "midi": 84,
        "name": "C6",
        "ticks": 42240,
        "time": 44,
        "velocity": 0.7322834645669292
    },
    {
        "duration": 0.26979166666667,
        "durationTicks": 259,
        "midi": 72,
        "name": "C5",
        "ticks": 42480,
        "time": 44.25,
        "velocity": 0.7322834645669292
    },
    {
        "duration": 0.22500000000000142,
        "durationTicks": 216,
        "midi": 75,
        "name": "D#5",
        "ticks": 42720,
        "time": 44.5,
        "velocity": 0.7322834645669292
    },
    {
        "duration": 0.24791666666666856,
        "durationTicks": 238,
        "midi": 75,
        "name": "D#5",
        "ticks": 43200,
        "time": 45,
        "velocity": 0.7322834645669292
    },
    {
        "duration": 0.26979166666667,
        "durationTicks": 259,
        "midi": 75,
        "name": "D#5",
        "ticks": 43680,
        "time": 45.5,
        "velocity": 0.7322834645669292
    },
    {
        "duration": 0.1354166666666643,
        "durationTicks": 130,
        "midi": 74,
        "name": "D5",
        "ticks": 43920,
        "time": 45.75,
        "velocity": 0.7322834645669292
    },
    {
        "duration": 0.24791666666666856,
        "durationTicks": 238,
        "midi": 75,
        "name": "D#5",
        "ticks": 44160,
        "time": 46,
        "velocity": 0.7322834645669292
    },
    {
        "duration": 0.26979166666667,
        "durationTicks": 259,
        "midi": 75,
        "name": "D#5",
        "ticks": 44640,
        "time": 46.5,
        "velocity": 0.7322834645669292
    },
    {
        "duration": 0.29270833333333,
        "durationTicks": 281,
        "midi": 82,
        "name": "A#5",
        "ticks": 45120,
        "time": 47,
        "velocity": 0.7322834645669292
    },
    {
        "duration": 0.24895833333333428,
        "durationTicks": 239,
        "midi": 82,
        "name": "A#5",
        "ticks": 45600,
        "time": 47.5,
        "velocity": 0.7322834645669292
    },
    {
        "duration": 0.15833333333333144,
        "durationTicks": 152,
        "midi": 84,
        "name": "C6",
        "ticks": 45840,
        "time": 47.75,
        "velocity": 0.7322834645669292
    },
    {
        "duration": 0.24895833333333428,
        "durationTicks": 239,
        "midi": 84,
        "name": "C6",
        "ticks": 46080,
        "time": 48,
        "velocity": 0.7322834645669292
    },
    {
        "duration": 0.203125,
        "durationTicks": 195,
        "midi": 72,
        "name": "C5",
        "ticks": 46320,
        "time": 48.25,
        "velocity": 0.7322834645669292
    },
    {
        "duration": 0.22500000000000142,
        "durationTicks": 216,
        "midi": 79,
        "name": "G5",
        "ticks": 46560,
        "time": 48.5,
        "velocity": 0.7322834645669292
    },
    {
        "duration": 0.26979166666667,
        "durationTicks": 259,
        "midi": 79,
        "name": "G5",
        "ticks": 47040,
        "time": 49,
        "velocity": 0.7322834645669292
    },
    {
        "duration": 0.29375000000000284,
        "durationTicks": 282,
        "midi": 79,
        "name": "G5",
        "ticks": 47520,
        "time": 49.5,
        "velocity": 0.7322834645669292
    },
    {
        "duration": 0.24791666666666856,
        "durationTicks": 238,
        "midi": 79,
        "name": "G5",
        "ticks": 48000,
        "time": 50,
        "velocity": 0.7322834645669292
    },
    {
        "duration": 0.2718750000000014,
        "durationTicks": 261,
        "midi": 72,
        "name": "C5",
        "ticks": 48240,
        "time": 50.25,
        "velocity": 0.7322834645669292
    },
    {
        "duration": 0.24791666666666856,
        "durationTicks": 238,
        "midi": 79,
        "name": "G5",
        "ticks": 48480,
        "time": 50.5,
        "velocity": 0.7322834645669292
    },
    {
        "duration": 0.22500000000000142,
        "durationTicks": 216,
        "midi": 74,
        "name": "D5",
        "ticks": 48720,
        "time": 50.75,
        "velocity": 0.7322834645669292
    },
    {
        "duration": 0.25,
        "durationTicks": 240,
        "midi": 79,
        "name": "G5",
        "ticks": 48960,
        "time": 51,
        "velocity": 0.7322834645669292
    },
    {
        "duration": 0.24791666666666856,
        "durationTicks": 238,
        "midi": 75,
        "name": "D#5",
        "ticks": 49200,
        "time": 51.25,
        "velocity": 0.7322834645669292
    },
    {
        "duration": 0.26979166666667,
        "durationTicks": 259,
        "midi": 79,
        "name": "G5",
        "ticks": 49440,
        "time": 51.5,
        "velocity": 0.7322834645669292
    },
    {
        "duration": 0.26874999999999716,
        "durationTicks": 258,
        "midi": 74,
        "name": "D5",
        "ticks": 49680,
        "time": 51.75,
        "velocity": 0.7322834645669292
    },
    {
        "duration": 0.24791666666666856,
        "durationTicks": 238,
        "midi": 84,
        "name": "C6",
        "ticks": 49920,
        "time": 52,
        "velocity": 0.7322834645669292
    },
    {
        "duration": 0.26979166666667,
        "durationTicks": 259,
        "midi": 72,
        "name": "C5",
        "ticks": 50160,
        "time": 52.25,
        "velocity": 0.7322834645669292
    },
    {
        "duration": 0.22500000000000142,
        "durationTicks": 216,
        "midi": 75,
        "name": "D#5",
        "ticks": 50400,
        "time": 52.5,
        "velocity": 0.7322834645669292
    },
    {
        "duration": 0.24791666666666856,
        "durationTicks": 238,
        "midi": 75,
        "name": "D#5",
        "ticks": 50880,
        "time": 53,
        "velocity": 0.7322834645669292
    },
    {
        "duration": 0.26979166666667,
        "durationTicks": 259,
        "midi": 75,
        "name": "D#5",
        "ticks": 51360,
        "time": 53.5,
        "velocity": 0.7322834645669292
    },
    {
        "duration": 0.1354166666666643,
        "durationTicks": 130,
        "midi": 74,
        "name": "D5",
        "ticks": 51600,
        "time": 53.75,
        "velocity": 0.7322834645669292
    },
    {
        "duration": 0.24791666666666856,
        "durationTicks": 238,
        "midi": 75,
        "name": "D#5",
        "ticks": 51840,
        "time": 54,
        "velocity": 0.7322834645669292
    },
    {
        "duration": 0.26979166666667,
        "durationTicks": 259,
        "midi": 75,
        "name": "D#5",
        "ticks": 52320,
        "time": 54.5,
        "velocity": 0.7322834645669292
    },
    {
        "duration": 0.29270833333333,
        "durationTicks": 281,
        "midi": 82,
        "name": "A#5",
        "ticks": 52800,
        "time": 55,
        "velocity": 0.7322834645669292
    },
    {
        "duration": 0.24895833333333428,
        "durationTicks": 239,
        "midi": 82,
        "name": "A#5",
        "ticks": 53280,
        "time": 55.5,
        "velocity": 0.7322834645669292
    },
    {
        "duration": 0.15833333333333144,
        "durationTicks": 152,
        "midi": 84,
        "name": "C6",
        "ticks": 53520,
        "time": 55.75,
        "velocity": 0.7322834645669292
    },
    {
        "duration": 0.24895833333333428,
        "durationTicks": 239,
        "midi": 84,
        "name": "C6",
        "ticks": 53760,
        "time": 56,
        "velocity": 0.7322834645669292
    },
    {
        "duration": 0.203125,
        "durationTicks": 195,
        "midi": 72,
        "name": "C5",
        "ticks": 54000,
        "time": 56.25,
        "velocity": 0.7322834645669292
    },
    {
        "duration": 0.22500000000000142,
        "durationTicks": 216,
        "midi": 79,
        "name": "G5",
        "ticks": 54240,
        "time": 56.5,
        "velocity": 0.7322834645669292
    },
    {
        "duration": 0.26979166666667,
        "durationTicks": 259,
        "midi": 79,
        "name": "G5",
        "ticks": 54720,
        "time": 57,
        "velocity": 0.7322834645669292
    },
    {
        "duration": 0.29375000000000284,
        "durationTicks": 282,
        "midi": 79,
        "name": "G5",
        "ticks": 55200,
        "time": 57.5,
        "velocity": 0.7322834645669292
    },
    {
        "duration": 0.24791666666666856,
        "durationTicks": 238,
        "midi": 79,
        "name": "G5",
        "ticks": 55680,
        "time": 58,
        "velocity": 0.7322834645669292
    },
    {
        "duration": 0.2718750000000014,
        "durationTicks": 261,
        "midi": 72,
        "name": "C5",
        "ticks": 55920,
        "time": 58.25,
        "velocity": 0.7322834645669292
    },
    {
        "duration": 0.24791666666666856,
        "durationTicks": 238,
        "midi": 79,
        "name": "G5",
        "ticks": 56160,
        "time": 58.5,
        "velocity": 0.7322834645669292
    },
    {
        "duration": 0.22500000000000142,
        "durationTicks": 216,
        "midi": 74,
        "name": "D5",
        "ticks": 56400,
        "time": 58.75,
        "velocity": 0.7322834645669292
    },
    {
        "duration": 0.25,
        "durationTicks": 240,
        "midi": 79,
        "name": "G5",
        "ticks": 56640,
        "time": 59,
        "velocity": 0.7322834645669292
    },
    {
        "duration": 0.24791666666666856,
        "durationTicks": 238,
        "midi": 75,
        "name": "D#5",
        "ticks": 56880,
        "time": 59.25,
        "velocity": 0.7322834645669292
    },
    {
        "duration": 0.26979166666667,
        "durationTicks": 259,
        "midi": 79,
        "name": "G5",
        "ticks": 57120,
        "time": 59.5,
        "velocity": 0.7322834645669292
    },
    {
        "duration": 0.26874999999999716,
        "durationTicks": 258,
        "midi": 74,
        "name": "D5",
        "ticks": 57360,
        "time": 59.75,
        "velocity": 0.7322834645669292
    },
    {
        "duration": 0.24791666666666856,
        "durationTicks": 238,
        "midi": 84,
        "name": "C6",
        "ticks": 57600,
        "time": 60,
        "velocity": 0.7322834645669292
    },
    {
        "duration": 0.26979166666667,
        "durationTicks": 259,
        "midi": 72,
        "name": "C5",
        "ticks": 57840,
        "time": 60.25,
        "velocity": 0.7322834645669292
    },
    {
        "duration": 0.22500000000000142,
        "durationTicks": 216,
        "midi": 75,
        "name": "D#5",
        "ticks": 58080,
        "time": 60.5,
        "velocity": 0.7322834645669292
    },
    {
        "duration": 0.24791666666666856,
        "durationTicks": 238,
        "midi": 75,
        "name": "D#5",
        "ticks": 58560,
        "time": 61,
        "velocity": 0.7322834645669292
    },
    {
        "duration": 0.26979166666667,
        "durationTicks": 259,
        "midi": 75,
        "name": "D#5",
        "ticks": 59040,
        "time": 61.5,
        "velocity": 0.7322834645669292
    },
    {
        "duration": 0.1354166666666643,
        "durationTicks": 130,
        "midi": 74,
        "name": "D5",
        "ticks": 59280,
        "time": 61.75,
        "velocity": 0.7322834645669292
    },
    {
        "duration": 0.24791666666666856,
        "durationTicks": 238,
        "midi": 75,
        "name": "D#5",
        "ticks": 59520,
        "time": 62,
        "velocity": 0.7322834645669292
    },
    {
        "duration": 0.26979166666667,
        "durationTicks": 259,
        "midi": 75,
        "name": "D#5",
        "ticks": 60000,
        "time": 62.5,
        "velocity": 0.7322834645669292
    },
    {
        "duration": 0.29270833333333,
        "durationTicks": 281,
        "midi": 82,
        "name": "A#5",
        "ticks": 60480,
        "time": 63,
        "velocity": 0.7322834645669292
    },
    {
        "duration": 0.24895833333333428,
        "durationTicks": 239,
        "midi": 82,
        "name": "A#5",
        "ticks": 60960,
        "time": 63.5,
        "velocity": 0.7322834645669292
    },
    {
        "duration": 0.15833333333333144,
        "durationTicks": 152,
        "midi": 84,
        "name": "C6",
        "ticks": 61200,
        "time": 63.75,
        "velocity": 0.7322834645669292
    },
    {
        "duration": 0.24895833333333428,
        "durationTicks": 239,
        "midi": 84,
        "name": "C6",
        "ticks": 61440,
        "time": 64,
        "velocity": 0.7322834645669292
    },
    {
        "duration": 0.203125,
        "durationTicks": 195,
        "midi": 72,
        "name": "C5",
        "ticks": 61680,
        "time": 64.25,
        "velocity": 0.7322834645669292
    },
    {
        "duration": 0.22499999999999432,
        "durationTicks": 216,
        "midi": 79,
        "name": "G5",
        "ticks": 61920,
        "time": 64.5,
        "velocity": 0.7322834645669292
    },
    {
        "duration": 0.2697916666666629,
        "durationTicks": 259,
        "midi": 79,
        "name": "G5",
        "ticks": 62400,
        "time": 65,
        "velocity": 0.7322834645669292
    },
    {
        "duration": 0.29375000000000284,
        "durationTicks": 282,
        "midi": 79,
        "name": "G5",
        "ticks": 62880,
        "time": 65.5,
        "velocity": 0.7322834645669292
    },
    {
        "duration": 0.24791666666666856,
        "durationTicks": 238,
        "midi": 79,
        "name": "G5",
        "ticks": 63360,
        "time": 66,
        "velocity": 0.7322834645669292
    },
    {
        "duration": 0.2718749999999943,
        "durationTicks": 261,
        "midi": 72,
        "name": "C5",
        "ticks": 63600,
        "time": 66.25,
        "velocity": 0.7322834645669292
    },
    {
        "duration": 0.24791666666666856,
        "durationTicks": 238,
        "midi": 79,
        "name": "G5",
        "ticks": 63840,
        "time": 66.5,
        "velocity": 0.7322834645669292
    },
    {
        "duration": 0.22499999999999432,
        "durationTicks": 216,
        "midi": 74,
        "name": "D5",
        "ticks": 64080,
        "time": 66.75,
        "velocity": 0.7322834645669292
    },
    {
        "duration": 0.25,
        "durationTicks": 240,
        "midi": 79,
        "name": "G5",
        "ticks": 64320,
        "time": 67,
        "velocity": 0.7322834645669292
    },
    {
        "duration": 0.24791666666666856,
        "durationTicks": 238,
        "midi": 75,
        "name": "D#5",
        "ticks": 64560,
        "time": 67.25,
        "velocity": 0.7322834645669292
    },
    {
        "duration": 0.2697916666666629,
        "durationTicks": 259,
        "midi": 79,
        "name": "G5",
        "ticks": 64800,
        "time": 67.5,
        "velocity": 0.7322834645669292
    },
    {
        "duration": 0.26874999999999716,
        "durationTicks": 258,
        "midi": 74,
        "name": "D5",
        "ticks": 65040,
        "time": 67.75,
        "velocity": 0.7322834645669292
    },
    {
        "duration": 0.24791666666666856,
        "durationTicks": 238,
        "midi": 84,
        "name": "C6",
        "ticks": 65280,
        "time": 68,
        "velocity": 0.7322834645669292
    },
    {
        "duration": 0.2697916666666629,
        "durationTicks": 259,
        "midi": 72,
        "name": "C5",
        "ticks": 65520,
        "time": 68.25,
        "velocity": 0.7322834645669292
    },
    {
        "duration": 0.22499999999999432,
        "durationTicks": 216,
        "midi": 75,
        "name": "D#5",
        "ticks": 65760,
        "time": 68.5,
        "velocity": 0.7322834645669292
    },
    {
        "duration": 0.24791666666666856,
        "durationTicks": 238,
        "midi": 75,
        "name": "D#5",
        "ticks": 66240,
        "time": 69,
        "velocity": 0.7322834645669292
    },
    {
        "duration": 0.2697916666666629,
        "durationTicks": 259,
        "midi": 75,
        "name": "D#5",
        "ticks": 66720,
        "time": 69.5,
        "velocity": 0.7322834645669292
    },
    {
        "duration": 0.1354166666666714,
        "durationTicks": 130,
        "midi": 74,
        "name": "D5",
        "ticks": 66960,
        "time": 69.75,
        "velocity": 0.7322834645669292
    },
    {
        "duration": 0.24791666666666856,
        "durationTicks": 238,
        "midi": 75,
        "name": "D#5",
        "ticks": 67200,
        "time": 70,
        "velocity": 0.7322834645669292
    },
    {
        "duration": 0.2697916666666629,
        "durationTicks": 259,
        "midi": 75,
        "name": "D#5",
        "ticks": 67680,
        "time": 70.5,
        "velocity": 0.7322834645669292
    },
    {
        "duration": 0.2927083333333371,
        "durationTicks": 281,
        "midi": 82,
        "name": "A#5",
        "ticks": 68160,
        "time": 71,
        "velocity": 0.7322834645669292
    },
    {
        "duration": 0.24895833333333428,
        "durationTicks": 239,
        "midi": 82,
        "name": "A#5",
        "ticks": 68640,
        "time": 71.5,
        "velocity": 0.7322834645669292
    },
    {
        "duration": 0.15833333333333144,
        "durationTicks": 152,
        "midi": 84,
        "name": "C6",
        "ticks": 68880,
        "time": 71.75,
        "velocity": 0.7322834645669292
    },
    {
        "duration": 0.24895833333333428,
        "durationTicks": 239,
        "midi": 84,
        "name": "C6",
        "ticks": 69120,
        "time": 72,
        "velocity": 0.7322834645669292
    },
    {
        "duration": 0.203125,
        "durationTicks": 195,
        "midi": 72,
        "name": "C5",
        "ticks": 69360,
        "time": 72.25,
        "velocity": 0.7322834645669292
    },
    {
        "duration": 0.22499999999999432,
        "durationTicks": 216,
        "midi": 79,
        "name": "G5",
        "ticks": 69600,
        "time": 72.5,
        "velocity": 0.7322834645669292
    },
    {
        "duration": 0.2697916666666629,
        "durationTicks": 259,
        "midi": 79,
        "name": "G5",
        "ticks": 70080,
        "time": 73,
        "velocity": 0.7322834645669292
    },
    {
        "duration": 0.29375000000000284,
        "durationTicks": 282,
        "midi": 79,
        "name": "G5",
        "ticks": 70560,
        "time": 73.5,
        "velocity": 0.7322834645669292
    },
    {
        "duration": 0.24791666666666856,
        "durationTicks": 238,
        "midi": 79,
        "name": "G5",
        "ticks": 71040,
        "time": 74,
        "velocity": 0.7322834645669292
    },
    {
        "duration": 0.2718749999999943,
        "durationTicks": 261,
        "midi": 72,
        "name": "C5",
        "ticks": 71280,
        "time": 74.25,
        "velocity": 0.7322834645669292
    },
    {
        "duration": 0.24791666666666856,
        "durationTicks": 238,
        "midi": 79,
        "name": "G5",
        "ticks": 71520,
        "time": 74.5,
        "velocity": 0.7322834645669292
    },
    {
        "duration": 0.22499999999999432,
        "durationTicks": 216,
        "midi": 74,
        "name": "D5",
        "ticks": 71760,
        "time": 74.75,
        "velocity": 0.7322834645669292
    },
    {
        "duration": 0.25,
        "durationTicks": 240,
        "midi": 79,
        "name": "G5",
        "ticks": 72000,
        "time": 75,
        "velocity": 0.7322834645669292
    },
    {
        "duration": 0.24791666666666856,
        "durationTicks": 238,
        "midi": 75,
        "name": "D#5",
        "ticks": 72240,
        "time": 75.25,
        "velocity": 0.7322834645669292
    },
    {
        "duration": 0.2697916666666629,
        "durationTicks": 259,
        "midi": 79,
        "name": "G5",
        "ticks": 72480,
        "time": 75.5,
        "velocity": 0.7322834645669292
    },
    {
        "duration": 0.26874999999999716,
        "durationTicks": 258,
        "midi": 74,
        "name": "D5",
        "ticks": 72720,
        "time": 75.75,
        "velocity": 0.7322834645669292
    },
    {
        "duration": 0.24791666666666856,
        "durationTicks": 238,
        "midi": 84,
        "name": "C6",
        "ticks": 72960,
        "time": 76,
        "velocity": 0.7322834645669292
    },
    {
        "duration": 0.2697916666666629,
        "durationTicks": 259,
        "midi": 72,
        "name": "C5",
        "ticks": 73200,
        "time": 76.25,
        "velocity": 0.7322834645669292
    },
    {
        "duration": 0.22499999999999432,
        "durationTicks": 216,
        "midi": 75,
        "name": "D#5",
        "ticks": 73440,
        "time": 76.5,
        "velocity": 0.7322834645669292
    },
    {
        "duration": 0.24791666666666856,
        "durationTicks": 238,
        "midi": 75,
        "name": "D#5",
        "ticks": 73920,
        "time": 77,
        "velocity": 0.7322834645669292
    },
    {
        "duration": 0.2697916666666629,
        "durationTicks": 259,
        "midi": 75,
        "name": "D#5",
        "ticks": 74400,
        "time": 77.5,
        "velocity": 0.7322834645669292
    },
    {
        "duration": 0.1354166666666714,
        "durationTicks": 130,
        "midi": 74,
        "name": "D5",
        "ticks": 74640,
        "time": 77.75,
        "velocity": 0.7322834645669292
    },
    {
        "duration": 0.24791666666666856,
        "durationTicks": 238,
        "midi": 75,
        "name": "D#5",
        "ticks": 74880,
        "time": 78,
        "velocity": 0.7322834645669292
    },
    {
        "duration": 0.2697916666666629,
        "durationTicks": 259,
        "midi": 75,
        "name": "D#5",
        "ticks": 75360,
        "time": 78.5,
        "velocity": 0.7322834645669292
    },
    {
        "duration": 0.2927083333333371,
        "durationTicks": 281,
        "midi": 82,
        "name": "A#5",
        "ticks": 75840,
        "time": 79,
        "velocity": 0.7322834645669292
    },
    {
        "duration": 0.24895833333333428,
        "durationTicks": 239,
        "midi": 82,
        "name": "A#5",
        "ticks": 76320,
        "time": 79.5,
        "velocity": 0.7322834645669292
    },
    {
        "duration": 0.15833333333333144,
        "durationTicks": 152,
        "midi": 84,
        "name": "C6",
        "ticks": 76560,
        "time": 79.75,
        "velocity": 0.7322834645669292
    }
]

export const HarmonyNotes = [
    {
        "duration": 2.5666666666666664,
        "durationTicks": 2464,
        "midi": 60,
        "name": "C4",
        "ticks": 1920,
        "time": 2,
        "velocity": 0.7716535433070866
    },
    {
        "duration": 2.5427083333333336,
        "durationTicks": 2441,
        "midi": 63,
        "name": "D#4",
        "ticks": 1920,
        "time": 2,
        "velocity": 0.7716535433070866
    },
    {
        "duration": 2.0010416666666675,
        "durationTicks": 1921,
        "midi": 62,
        "name": "D4",
        "ticks": 5760,
        "time": 6,
        "velocity": 0.7716535433070866
    },
    {
        "duration": 2.0041666666666664,
        "durationTicks": 1924,
        "midi": 65,
        "name": "F4",
        "ticks": 5760,
        "time": 6,
        "velocity": 0.7716535433070866
    },
    {
        "duration": 2.451041666666667,
        "durationTicks": 2353,
        "midi": 60,
        "name": "C4",
        "ticks": 9600,
        "time": 10,
        "velocity": 0.7716535433070866
    },
    {
        "duration": 2.4520833333333325,
        "durationTicks": 2354,
        "midi": 63,
        "name": "D#4",
        "ticks": 9600,
        "time": 10,
        "velocity": 0.7716535433070866
    },
    {
        "duration": 1.8739583333333325,
        "durationTicks": 1799,
        "midi": 65,
        "name": "F4",
        "ticks": 13440,
        "time": 14,
        "velocity": 0.7716535433070866
    },
    {
        "duration": 1.875,
        "durationTicks": 1800,
        "midi": 70,
        "name": "A#4",
        "ticks": 13440,
        "time": 14,
        "velocity": 0.7716535433070866
    },
    {
        "duration": 2.5666666666666664,
        "durationTicks": 2464,
        "midi": 60,
        "name": "C4",
        "ticks": 17280,
        "time": 18,
        "velocity": 0.7716535433070866
    },
    {
        "duration": 2.5427083333333336,
        "durationTicks": 2441,
        "midi": 63,
        "name": "D#4",
        "ticks": 17280,
        "time": 18,
        "velocity": 0.7716535433070866
    },
    {
        "duration": 2.0010416666666657,
        "durationTicks": 1921,
        "midi": 62,
        "name": "D4",
        "ticks": 21120,
        "time": 22,
        "velocity": 0.7716535433070866
    },
    {
        "duration": 2.0041666666666664,
        "durationTicks": 1924,
        "midi": 65,
        "name": "F4",
        "ticks": 21120,
        "time": 22,
        "velocity": 0.7716535433070866
    },
    {
        "duration": 2.451041666666665,
        "durationTicks": 2353,
        "midi": 60,
        "name": "C4",
        "ticks": 24960,
        "time": 26,
        "velocity": 0.7716535433070866
    },
    {
        "duration": 2.4520833333333343,
        "durationTicks": 2354,
        "midi": 63,
        "name": "D#4",
        "ticks": 24960,
        "time": 26,
        "velocity": 0.7716535433070866
    },
    {
        "duration": 1.8739583333333343,
        "durationTicks": 1799,
        "midi": 65,
        "name": "F4",
        "ticks": 28800,
        "time": 30,
        "velocity": 0.7716535433070866
    },
    {
        "duration": 1.875,
        "durationTicks": 1800,
        "midi": 70,
        "name": "A#4",
        "ticks": 28800,
        "time": 30,
        "velocity": 0.7716535433070866
    },
    {
        "duration": 2.56666666666667,
        "durationTicks": 2464,
        "midi": 60,
        "name": "C4",
        "ticks": 32640,
        "time": 34,
        "velocity": 0.7716535433070866
    },
    {
        "duration": 2.54270833333333,
        "durationTicks": 2441,
        "midi": 63,
        "name": "D#4",
        "ticks": 32640,
        "time": 34,
        "velocity": 0.7716535433070866
    },
    {
        "duration": 2.0010416666666657,
        "durationTicks": 1921,
        "midi": 62,
        "name": "D4",
        "ticks": 36480,
        "time": 38,
        "velocity": 0.7716535433070866
    },
    {
        "duration": 2.00416666666667,
        "durationTicks": 1924,
        "midi": 65,
        "name": "F4",
        "ticks": 36480,
        "time": 38,
        "velocity": 0.7716535433070866
    },
    {
        "duration": 2.4510416666666686,
        "durationTicks": 2353,
        "midi": 60,
        "name": "C4",
        "ticks": 40320,
        "time": 42,
        "velocity": 0.7716535433070866
    },
    {
        "duration": 2.4520833333333343,
        "durationTicks": 2354,
        "midi": 63,
        "name": "D#4",
        "ticks": 40320,
        "time": 42,
        "velocity": 0.7716535433070866
    },
    {
        "duration": 1.8739583333333343,
        "durationTicks": 1799,
        "midi": 65,
        "name": "F4",
        "ticks": 44160,
        "time": 46,
        "velocity": 0.7716535433070866
    },
    {
        "duration": 1.875,
        "durationTicks": 1800,
        "midi": 70,
        "name": "A#4",
        "ticks": 44160,
        "time": 46,
        "velocity": 0.7716535433070866
    },
    {
        "duration": 2.56666666666667,
        "durationTicks": 2464,
        "midi": 60,
        "name": "C4",
        "ticks": 48000,
        "time": 50,
        "velocity": 0.7716535433070866
    },
    {
        "duration": 2.54270833333333,
        "durationTicks": 2441,
        "midi": 63,
        "name": "D#4",
        "ticks": 48000,
        "time": 50,
        "velocity": 0.7716535433070866
    },
    {
        "duration": 2.0010416666666657,
        "durationTicks": 1921,
        "midi": 62,
        "name": "D4",
        "ticks": 51840,
        "time": 54,
        "velocity": 0.7716535433070866
    },
    {
        "duration": 2.00416666666667,
        "durationTicks": 1924,
        "midi": 65,
        "name": "F4",
        "ticks": 51840,
        "time": 54,
        "velocity": 0.7716535433070866
    },
    {
        "duration": 2.4510416666666686,
        "durationTicks": 2353,
        "midi": 60,
        "name": "C4",
        "ticks": 55680,
        "time": 58,
        "velocity": 0.7716535433070866
    },
    {
        "duration": 2.4520833333333343,
        "durationTicks": 2354,
        "midi": 63,
        "name": "D#4",
        "ticks": 55680,
        "time": 58,
        "velocity": 0.7716535433070866
    },
    {
        "duration": 1.8739583333333343,
        "durationTicks": 1799,
        "midi": 65,
        "name": "F4",
        "ticks": 59520,
        "time": 62,
        "velocity": 0.7716535433070866
    },
    {
        "duration": 1.875,
        "durationTicks": 1800,
        "midi": 70,
        "name": "A#4",
        "ticks": 59520,
        "time": 62,
        "velocity": 0.7716535433070866
    },
    {
        "duration": 2.566666666666663,
        "durationTicks": 2464,
        "midi": 60,
        "name": "C4",
        "ticks": 63360,
        "time": 66,
        "velocity": 0.7716535433070866
    },
    {
        "duration": 2.542708333333337,
        "durationTicks": 2441,
        "midi": 63,
        "name": "D#4",
        "ticks": 63360,
        "time": 66,
        "velocity": 0.7716535433070866
    },
    {
        "duration": 2.0010416666666657,
        "durationTicks": 1921,
        "midi": 62,
        "name": "D4",
        "ticks": 67200,
        "time": 70,
        "velocity": 0.7716535433070866
    },
    {
        "duration": 2.004166666666663,
        "durationTicks": 1924,
        "midi": 65,
        "name": "F4",
        "ticks": 67200,
        "time": 70,
        "velocity": 0.7716535433070866
    },
    {
        "duration": 2.4510416666666686,
        "durationTicks": 2353,
        "midi": 60,
        "name": "C4",
        "ticks": 71040,
        "time": 74,
        "velocity": 0.7716535433070866
    },
    {
        "duration": 2.4520833333333343,
        "durationTicks": 2354,
        "midi": 63,
        "name": "D#4",
        "ticks": 71040,
        "time": 74,
        "velocity": 0.7716535433070866
    },
    {
        "duration": 1.8739583333333343,
        "durationTicks": 1799,
        "midi": 65,
        "name": "F4",
        "ticks": 74880,
        "time": 78,
        "velocity": 0.7716535433070866
    },
    {
        "duration": 1.875,
        "durationTicks": 1800,
        "midi": 70,
        "name": "A#4",
        "ticks": 74880,
        "time": 78,
        "velocity": 0.7716535433070866
    }
]

export const BassNotes = [
    {
        "duration": 0.15625,
        "durationTicks": 150,
        "midi": 50,
        "name": "D3",
        "ticks": 720,
        "time": 0.75,
        "velocity": 0.7716535433070866
    },
    {
        "duration": 0.15625,
        "durationTicks": 150,
        "midi": 50,
        "name": "D3",
        "ticks": 960,
        "time": 1,
        "velocity": 0.7716535433070866
    },
    {
        "duration": 0.15625,
        "durationTicks": 150,
        "midi": 48,
        "name": "C3",
        "ticks": 1200,
        "time": 1.25,
        "velocity": 0.7716535433070866
    },
    {
        "duration": 0.125,
        "durationTicks": 120,
        "midi": 48,
        "name": "C3",
        "ticks": 1440,
        "time": 1.5,
        "velocity": 0.7716535433070866
    },
    {
        "duration": 0.15625,
        "durationTicks": 150,
        "midi": 50,
        "name": "D3",
        "ticks": 2160,
        "time": 2.25,
        "velocity": 0.7716535433070866
    },
    {
        "duration": 0.15625,
        "durationTicks": 150,
        "midi": 50,
        "name": "D3",
        "ticks": 2400,
        "time": 2.5,
        "velocity": 0.7716535433070866
    },
    {
        "duration": 0.15625,
        "durationTicks": 150,
        "midi": 48,
        "name": "C3",
        "ticks": 2640,
        "time": 2.75,
        "velocity": 0.7716535433070866
    },
    {
        "duration": 0.125,
        "durationTicks": 120,
        "midi": 48,
        "name": "C3",
        "ticks": 2880,
        "time": 3,
        "velocity": 0.7716535433070866
    },
    {
        "duration": 0.125,
        "durationTicks": 120,
        "midi": 48,
        "name": "C3",
        "ticks": 3360,
        "time": 3.5,
        "velocity": 0.7716535433070866
    },
    {
        "duration": 0.15625,
        "durationTicks": 150,
        "midi": 50,
        "name": "D3",
        "ticks": 3840,
        "time": 4,
        "velocity": 0.7716535433070866
    },
    {
        "duration": 0.15625,
        "durationTicks": 150,
        "midi": 51,
        "name": "D#3",
        "ticks": 4560,
        "time": 4.75,
        "velocity": 0.7716535433070866
    },
    {
        "duration": 0.15625,
        "durationTicks": 150,
        "midi": 51,
        "name": "D#3",
        "ticks": 4800,
        "time": 5,
        "velocity": 0.7716535433070866
    },
    {
        "duration": 0.15625,
        "durationTicks": 150,
        "midi": 50,
        "name": "D3",
        "ticks": 5040,
        "time": 5.25,
        "velocity": 0.7716535433070866
    },
    {
        "duration": 0.125,
        "durationTicks": 120,
        "midi": 50,
        "name": "D3",
        "ticks": 5280,
        "time": 5.5,
        "velocity": 0.7716535433070866
    },
    {
        "duration": 0.15625,
        "durationTicks": 150,
        "midi": 51,
        "name": "D#3",
        "ticks": 6000,
        "time": 6.25,
        "velocity": 0.7716535433070866
    },
    {
        "duration": 0.15625,
        "durationTicks": 150,
        "midi": 51,
        "name": "D#3",
        "ticks": 6240,
        "time": 6.5,
        "velocity": 0.7716535433070866
    },
    {
        "duration": 0.15625,
        "durationTicks": 150,
        "midi": 50,
        "name": "D3",
        "ticks": 6480,
        "time": 6.75,
        "velocity": 0.7716535433070866
    },
    {
        "duration": 0.125,
        "durationTicks": 120,
        "midi": 50,
        "name": "D3",
        "ticks": 6720,
        "time": 7,
        "velocity": 0.7716535433070866
    },
    {
        "duration": 0.21875,
        "durationTicks": 210,
        "midi": 46,
        "name": "A#2",
        "ticks": 7200,
        "time": 7.5,
        "velocity": 0.7716535433070866
    },
    {
        "duration": 0.15625,
        "durationTicks": 150,
        "midi": 50,
        "name": "D3",
        "ticks": 8400,
        "time": 8.75,
        "velocity": 0.7716535433070866
    },
    {
        "duration": 0.15625,
        "durationTicks": 150,
        "midi": 50,
        "name": "D3",
        "ticks": 8640,
        "time": 9,
        "velocity": 0.7716535433070866
    },
    {
        "duration": 0.15625,
        "durationTicks": 150,
        "midi": 48,
        "name": "C3",
        "ticks": 8880,
        "time": 9.25,
        "velocity": 0.7716535433070866
    },
    {
        "duration": 0.125,
        "durationTicks": 120,
        "midi": 48,
        "name": "C3",
        "ticks": 9120,
        "time": 9.5,
        "velocity": 0.7716535433070866
    },
    {
        "duration": 0.15625,
        "durationTicks": 150,
        "midi": 50,
        "name": "D3",
        "ticks": 9840,
        "time": 10.25,
        "velocity": 0.7716535433070866
    },
    {
        "duration": 0.15625,
        "durationTicks": 150,
        "midi": 50,
        "name": "D3",
        "ticks": 10080,
        "time": 10.5,
        "velocity": 0.7716535433070866
    },
    {
        "duration": 0.15625,
        "durationTicks": 150,
        "midi": 48,
        "name": "C3",
        "ticks": 10320,
        "time": 10.75,
        "velocity": 0.7716535433070866
    },
    {
        "duration": 0.125,
        "durationTicks": 120,
        "midi": 48,
        "name": "C3",
        "ticks": 10560,
        "time": 11,
        "velocity": 0.7716535433070866
    },
    {
        "duration": 0.125,
        "durationTicks": 120,
        "midi": 48,
        "name": "C3",
        "ticks": 11040,
        "time": 11.5,
        "velocity": 0.7716535433070866
    },
    {
        "duration": 0.15625,
        "durationTicks": 150,
        "midi": 50,
        "name": "D3",
        "ticks": 11520,
        "time": 12,
        "velocity": 0.7716535433070866
    },
    {
        "duration": 0.15625,
        "durationTicks": 150,
        "midi": 51,
        "name": "D#3",
        "ticks": 12240,
        "time": 12.75,
        "velocity": 0.7716535433070866
    },
    {
        "duration": 0.15625,
        "durationTicks": 150,
        "midi": 51,
        "name": "D#3",
        "ticks": 12480,
        "time": 13,
        "velocity": 0.7716535433070866
    },
    {
        "duration": 0.15625,
        "durationTicks": 150,
        "midi": 50,
        "name": "D3",
        "ticks": 12720,
        "time": 13.25,
        "velocity": 0.7716535433070866
    },
    {
        "duration": 0.125,
        "durationTicks": 120,
        "midi": 50,
        "name": "D3",
        "ticks": 12960,
        "time": 13.5,
        "velocity": 0.7716535433070866
    },
    {
        "duration": 0.15625,
        "durationTicks": 150,
        "midi": 51,
        "name": "D#3",
        "ticks": 13680,
        "time": 14.25,
        "velocity": 0.7716535433070866
    },
    {
        "duration": 0.15625,
        "durationTicks": 150,
        "midi": 51,
        "name": "D#3",
        "ticks": 13920,
        "time": 14.5,
        "velocity": 0.7716535433070866
    },
    {
        "duration": 0.15625,
        "durationTicks": 150,
        "midi": 50,
        "name": "D3",
        "ticks": 14160,
        "time": 14.75,
        "velocity": 0.7716535433070866
    },
    {
        "duration": 0.125,
        "durationTicks": 120,
        "midi": 50,
        "name": "D3",
        "ticks": 14400,
        "time": 15,
        "velocity": 0.7716535433070866
    },
    {
        "duration": 0.21875,
        "durationTicks": 210,
        "midi": 46,
        "name": "A#2",
        "ticks": 14880,
        "time": 15.5,
        "velocity": 0.7716535433070866
    },
    {
        "duration": 0.15625,
        "durationTicks": 150,
        "midi": 50,
        "name": "D3",
        "ticks": 16080,
        "time": 16.75,
        "velocity": 0.7716535433070866
    },
    {
        "duration": 0.15625,
        "durationTicks": 150,
        "midi": 50,
        "name": "D3",
        "ticks": 16320,
        "time": 17,
        "velocity": 0.7716535433070866
    },
    {
        "duration": 0.15625,
        "durationTicks": 150,
        "midi": 48,
        "name": "C3",
        "ticks": 16560,
        "time": 17.25,
        "velocity": 0.7716535433070866
    },
    {
        "duration": 0.125,
        "durationTicks": 120,
        "midi": 48,
        "name": "C3",
        "ticks": 16800,
        "time": 17.5,
        "velocity": 0.7716535433070866
    },
    {
        "duration": 0.15625,
        "durationTicks": 150,
        "midi": 50,
        "name": "D3",
        "ticks": 17520,
        "time": 18.25,
        "velocity": 0.7716535433070866
    },
    {
        "duration": 0.15625,
        "durationTicks": 150,
        "midi": 50,
        "name": "D3",
        "ticks": 17760,
        "time": 18.5,
        "velocity": 0.7716535433070866
    },
    {
        "duration": 0.15625,
        "durationTicks": 150,
        "midi": 48,
        "name": "C3",
        "ticks": 18000,
        "time": 18.75,
        "velocity": 0.7716535433070866
    },
    {
        "duration": 0.125,
        "durationTicks": 120,
        "midi": 48,
        "name": "C3",
        "ticks": 18240,
        "time": 19,
        "velocity": 0.7716535433070866
    },
    {
        "duration": 0.125,
        "durationTicks": 120,
        "midi": 48,
        "name": "C3",
        "ticks": 18720,
        "time": 19.5,
        "velocity": 0.7716535433070866
    },
    {
        "duration": 0.15625,
        "durationTicks": 150,
        "midi": 50,
        "name": "D3",
        "ticks": 19200,
        "time": 20,
        "velocity": 0.7716535433070866
    },
    {
        "duration": 0.15625,
        "durationTicks": 150,
        "midi": 51,
        "name": "D#3",
        "ticks": 19920,
        "time": 20.75,
        "velocity": 0.7716535433070866
    },
    {
        "duration": 0.15625,
        "durationTicks": 150,
        "midi": 51,
        "name": "D#3",
        "ticks": 20160,
        "time": 21,
        "velocity": 0.7716535433070866
    },
    {
        "duration": 0.15625,
        "durationTicks": 150,
        "midi": 50,
        "name": "D3",
        "ticks": 20400,
        "time": 21.25,
        "velocity": 0.7716535433070866
    },
    {
        "duration": 0.125,
        "durationTicks": 120,
        "midi": 50,
        "name": "D3",
        "ticks": 20640,
        "time": 21.5,
        "velocity": 0.7716535433070866
    },
    {
        "duration": 0.15625,
        "durationTicks": 150,
        "midi": 51,
        "name": "D#3",
        "ticks": 21360,
        "time": 22.25,
        "velocity": 0.7716535433070866
    },
    {
        "duration": 0.15625,
        "durationTicks": 150,
        "midi": 51,
        "name": "D#3",
        "ticks": 21600,
        "time": 22.5,
        "velocity": 0.7716535433070866
    },
    {
        "duration": 0.15625,
        "durationTicks": 150,
        "midi": 50,
        "name": "D3",
        "ticks": 21840,
        "time": 22.75,
        "velocity": 0.7716535433070866
    },
    {
        "duration": 0.125,
        "durationTicks": 120,
        "midi": 50,
        "name": "D3",
        "ticks": 22080,
        "time": 23,
        "velocity": 0.7716535433070866
    },
    {
        "duration": 0.21875,
        "durationTicks": 210,
        "midi": 46,
        "name": "A#2",
        "ticks": 22560,
        "time": 23.5,
        "velocity": 0.7716535433070866
    },
    {
        "duration": 0.15625,
        "durationTicks": 150,
        "midi": 50,
        "name": "D3",
        "ticks": 23760,
        "time": 24.75,
        "velocity": 0.7716535433070866
    },
    {
        "duration": 0.15625,
        "durationTicks": 150,
        "midi": 50,
        "name": "D3",
        "ticks": 24000,
        "time": 25,
        "velocity": 0.7716535433070866
    },
    {
        "duration": 0.15625,
        "durationTicks": 150,
        "midi": 48,
        "name": "C3",
        "ticks": 24240,
        "time": 25.25,
        "velocity": 0.7716535433070866
    },
    {
        "duration": 0.125,
        "durationTicks": 120,
        "midi": 48,
        "name": "C3",
        "ticks": 24480,
        "time": 25.5,
        "velocity": 0.7716535433070866
    },
    {
        "duration": 0.15625,
        "durationTicks": 150,
        "midi": 50,
        "name": "D3",
        "ticks": 25200,
        "time": 26.25,
        "velocity": 0.7716535433070866
    },
    {
        "duration": 0.15625,
        "durationTicks": 150,
        "midi": 50,
        "name": "D3",
        "ticks": 25440,
        "time": 26.5,
        "velocity": 0.7716535433070866
    },
    {
        "duration": 0.15625,
        "durationTicks": 150,
        "midi": 48,
        "name": "C3",
        "ticks": 25680,
        "time": 26.75,
        "velocity": 0.7716535433070866
    },
    {
        "duration": 0.125,
        "durationTicks": 120,
        "midi": 48,
        "name": "C3",
        "ticks": 25920,
        "time": 27,
        "velocity": 0.7716535433070866
    },
    {
        "duration": 0.125,
        "durationTicks": 120,
        "midi": 48,
        "name": "C3",
        "ticks": 26400,
        "time": 27.5,
        "velocity": 0.7716535433070866
    },
    {
        "duration": 0.15625,
        "durationTicks": 150,
        "midi": 50,
        "name": "D3",
        "ticks": 26880,
        "time": 28,
        "velocity": 0.7716535433070866
    },
    {
        "duration": 0.15625,
        "durationTicks": 150,
        "midi": 51,
        "name": "D#3",
        "ticks": 27600,
        "time": 28.75,
        "velocity": 0.7716535433070866
    },
    {
        "duration": 0.15625,
        "durationTicks": 150,
        "midi": 51,
        "name": "D#3",
        "ticks": 27840,
        "time": 29,
        "velocity": 0.7716535433070866
    },
    {
        "duration": 0.15625,
        "durationTicks": 150,
        "midi": 50,
        "name": "D3",
        "ticks": 28080,
        "time": 29.25,
        "velocity": 0.7716535433070866
    },
    {
        "duration": 0.125,
        "durationTicks": 120,
        "midi": 50,
        "name": "D3",
        "ticks": 28320,
        "time": 29.5,
        "velocity": 0.7716535433070866
    },
    {
        "duration": 0.15625,
        "durationTicks": 150,
        "midi": 51,
        "name": "D#3",
        "ticks": 29040,
        "time": 30.25,
        "velocity": 0.7716535433070866
    },
    {
        "duration": 0.15625,
        "durationTicks": 150,
        "midi": 51,
        "name": "D#3",
        "ticks": 29280,
        "time": 30.5,
        "velocity": 0.7716535433070866
    },
    {
        "duration": 0.15625,
        "durationTicks": 150,
        "midi": 50,
        "name": "D3",
        "ticks": 29520,
        "time": 30.75,
        "velocity": 0.7716535433070866
    },
    {
        "duration": 0.125,
        "durationTicks": 120,
        "midi": 50,
        "name": "D3",
        "ticks": 29760,
        "time": 31,
        "velocity": 0.7716535433070866
    },
    {
        "duration": 0.21875,
        "durationTicks": 210,
        "midi": 46,
        "name": "A#2",
        "ticks": 30240,
        "time": 31.5,
        "velocity": 0.7716535433070866
    },
    {
        "duration": 0.15625,
        "durationTicks": 150,
        "midi": 50,
        "name": "D3",
        "ticks": 31440,
        "time": 32.75,
        "velocity": 0.7716535433070866
    },
    {
        "duration": 0.15625,
        "durationTicks": 150,
        "midi": 50,
        "name": "D3",
        "ticks": 31680,
        "time": 33,
        "velocity": 0.7716535433070866
    },
    {
        "duration": 0.15625,
        "durationTicks": 150,
        "midi": 48,
        "name": "C3",
        "ticks": 31920,
        "time": 33.25,
        "velocity": 0.7716535433070866
    },
    {
        "duration": 0.125,
        "durationTicks": 120,
        "midi": 48,
        "name": "C3",
        "ticks": 32160,
        "time": 33.5,
        "velocity": 0.7716535433070866
    },
    {
        "duration": 0.15625,
        "durationTicks": 150,
        "midi": 50,
        "name": "D3",
        "ticks": 32880,
        "time": 34.25,
        "velocity": 0.7716535433070866
    },
    {
        "duration": 0.15625,
        "durationTicks": 150,
        "midi": 50,
        "name": "D3",
        "ticks": 33120,
        "time": 34.5,
        "velocity": 0.7716535433070866
    },
    {
        "duration": 0.15625,
        "durationTicks": 150,
        "midi": 48,
        "name": "C3",
        "ticks": 33360,
        "time": 34.75,
        "velocity": 0.7716535433070866
    },
    {
        "duration": 0.125,
        "durationTicks": 120,
        "midi": 48,
        "name": "C3",
        "ticks": 33600,
        "time": 35,
        "velocity": 0.7716535433070866
    },
    {
        "duration": 0.125,
        "durationTicks": 120,
        "midi": 48,
        "name": "C3",
        "ticks": 34080,
        "time": 35.5,
        "velocity": 0.7716535433070866
    },
    {
        "duration": 0.15625,
        "durationTicks": 150,
        "midi": 50,
        "name": "D3",
        "ticks": 34560,
        "time": 36,
        "velocity": 0.7716535433070866
    },
    {
        "duration": 0.15625,
        "durationTicks": 150,
        "midi": 51,
        "name": "D#3",
        "ticks": 35280,
        "time": 36.75,
        "velocity": 0.7716535433070866
    },
    {
        "duration": 0.15625,
        "durationTicks": 150,
        "midi": 51,
        "name": "D#3",
        "ticks": 35520,
        "time": 37,
        "velocity": 0.7716535433070866
    },
    {
        "duration": 0.15625,
        "durationTicks": 150,
        "midi": 50,
        "name": "D3",
        "ticks": 35760,
        "time": 37.25,
        "velocity": 0.7716535433070866
    },
    {
        "duration": 0.125,
        "durationTicks": 120,
        "midi": 50,
        "name": "D3",
        "ticks": 36000,
        "time": 37.5,
        "velocity": 0.7716535433070866
    },
    {
        "duration": 0.15625,
        "durationTicks": 150,
        "midi": 51,
        "name": "D#3",
        "ticks": 36720,
        "time": 38.25,
        "velocity": 0.7716535433070866
    },
    {
        "duration": 0.15625,
        "durationTicks": 150,
        "midi": 51,
        "name": "D#3",
        "ticks": 36960,
        "time": 38.5,
        "velocity": 0.7716535433070866
    },
    {
        "duration": 0.15625,
        "durationTicks": 150,
        "midi": 50,
        "name": "D3",
        "ticks": 37200,
        "time": 38.75,
        "velocity": 0.7716535433070866
    },
    {
        "duration": 0.125,
        "durationTicks": 120,
        "midi": 50,
        "name": "D3",
        "ticks": 37440,
        "time": 39,
        "velocity": 0.7716535433070866
    },
    {
        "duration": 0.21875,
        "durationTicks": 210,
        "midi": 46,
        "name": "A#2",
        "ticks": 37920,
        "time": 39.5,
        "velocity": 0.7716535433070866
    },
    {
        "duration": 0.15625,
        "durationTicks": 150,
        "midi": 50,
        "name": "D3",
        "ticks": 39120,
        "time": 40.75,
        "velocity": 0.7716535433070866
    },
    {
        "duration": 0.15625,
        "durationTicks": 150,
        "midi": 50,
        "name": "D3",
        "ticks": 39360,
        "time": 41,
        "velocity": 0.7716535433070866
    },
    {
        "duration": 0.15625,
        "durationTicks": 150,
        "midi": 48,
        "name": "C3",
        "ticks": 39600,
        "time": 41.25,
        "velocity": 0.7716535433070866
    },
    {
        "duration": 0.125,
        "durationTicks": 120,
        "midi": 48,
        "name": "C3",
        "ticks": 39840,
        "time": 41.5,
        "velocity": 0.7716535433070866
    },
    {
        "duration": 0.15625,
        "durationTicks": 150,
        "midi": 50,
        "name": "D3",
        "ticks": 40560,
        "time": 42.25,
        "velocity": 0.7716535433070866
    },
    {
        "duration": 0.15625,
        "durationTicks": 150,
        "midi": 50,
        "name": "D3",
        "ticks": 40800,
        "time": 42.5,
        "velocity": 0.7716535433070866
    },
    {
        "duration": 0.15625,
        "durationTicks": 150,
        "midi": 48,
        "name": "C3",
        "ticks": 41040,
        "time": 42.75,
        "velocity": 0.7716535433070866
    },
    {
        "duration": 0.125,
        "durationTicks": 120,
        "midi": 48,
        "name": "C3",
        "ticks": 41280,
        "time": 43,
        "velocity": 0.7716535433070866
    },
    {
        "duration": 0.125,
        "durationTicks": 120,
        "midi": 48,
        "name": "C3",
        "ticks": 41760,
        "time": 43.5,
        "velocity": 0.7716535433070866
    },
    {
        "duration": 0.15625,
        "durationTicks": 150,
        "midi": 50,
        "name": "D3",
        "ticks": 42240,
        "time": 44,
        "velocity": 0.7716535433070866
    },
    {
        "duration": 0.15625,
        "durationTicks": 150,
        "midi": 51,
        "name": "D#3",
        "ticks": 42960,
        "time": 44.75,
        "velocity": 0.7716535433070866
    },
    {
        "duration": 0.15625,
        "durationTicks": 150,
        "midi": 51,
        "name": "D#3",
        "ticks": 43200,
        "time": 45,
        "velocity": 0.7716535433070866
    },
    {
        "duration": 0.15625,
        "durationTicks": 150,
        "midi": 50,
        "name": "D3",
        "ticks": 43440,
        "time": 45.25,
        "velocity": 0.7716535433070866
    },
    {
        "duration": 0.125,
        "durationTicks": 120,
        "midi": 50,
        "name": "D3",
        "ticks": 43680,
        "time": 45.5,
        "velocity": 0.7716535433070866
    },
    {
        "duration": 0.15625,
        "durationTicks": 150,
        "midi": 51,
        "name": "D#3",
        "ticks": 44400,
        "time": 46.25,
        "velocity": 0.7716535433070866
    },
    {
        "duration": 0.15625,
        "durationTicks": 150,
        "midi": 51,
        "name": "D#3",
        "ticks": 44640,
        "time": 46.5,
        "velocity": 0.7716535433070866
    },
    {
        "duration": 0.15625,
        "durationTicks": 150,
        "midi": 50,
        "name": "D3",
        "ticks": 44880,
        "time": 46.75,
        "velocity": 0.7716535433070866
    },
    {
        "duration": 0.125,
        "durationTicks": 120,
        "midi": 50,
        "name": "D3",
        "ticks": 45120,
        "time": 47,
        "velocity": 0.7716535433070866
    },
    {
        "duration": 0.21875,
        "durationTicks": 210,
        "midi": 46,
        "name": "A#2",
        "ticks": 45600,
        "time": 47.5,
        "velocity": 0.7716535433070866
    },
    {
        "duration": 0.15625,
        "durationTicks": 150,
        "midi": 50,
        "name": "D3",
        "ticks": 46800,
        "time": 48.75,
        "velocity": 0.7716535433070866
    },
    {
        "duration": 0.15625,
        "durationTicks": 150,
        "midi": 50,
        "name": "D3",
        "ticks": 47040,
        "time": 49,
        "velocity": 0.7716535433070866
    },
    {
        "duration": 0.15625,
        "durationTicks": 150,
        "midi": 48,
        "name": "C3",
        "ticks": 47280,
        "time": 49.25,
        "velocity": 0.7716535433070866
    },
    {
        "duration": 0.125,
        "durationTicks": 120,
        "midi": 48,
        "name": "C3",
        "ticks": 47520,
        "time": 49.5,
        "velocity": 0.7716535433070866
    },
    {
        "duration": 0.15625,
        "durationTicks": 150,
        "midi": 50,
        "name": "D3",
        "ticks": 48240,
        "time": 50.25,
        "velocity": 0.7716535433070866
    },
    {
        "duration": 0.15625,
        "durationTicks": 150,
        "midi": 50,
        "name": "D3",
        "ticks": 48480,
        "time": 50.5,
        "velocity": 0.7716535433070866
    },
    {
        "duration": 0.15625,
        "durationTicks": 150,
        "midi": 48,
        "name": "C3",
        "ticks": 48720,
        "time": 50.75,
        "velocity": 0.7716535433070866
    },
    {
        "duration": 0.125,
        "durationTicks": 120,
        "midi": 48,
        "name": "C3",
        "ticks": 48960,
        "time": 51,
        "velocity": 0.7716535433070866
    },
    {
        "duration": 0.125,
        "durationTicks": 120,
        "midi": 48,
        "name": "C3",
        "ticks": 49440,
        "time": 51.5,
        "velocity": 0.7716535433070866
    },
    {
        "duration": 0.15625,
        "durationTicks": 150,
        "midi": 50,
        "name": "D3",
        "ticks": 49920,
        "time": 52,
        "velocity": 0.7716535433070866
    },
    {
        "duration": 0.15625,
        "durationTicks": 150,
        "midi": 51,
        "name": "D#3",
        "ticks": 50640,
        "time": 52.75,
        "velocity": 0.7716535433070866
    },
    {
        "duration": 0.15625,
        "durationTicks": 150,
        "midi": 51,
        "name": "D#3",
        "ticks": 50880,
        "time": 53,
        "velocity": 0.7716535433070866
    },
    {
        "duration": 0.15625,
        "durationTicks": 150,
        "midi": 50,
        "name": "D3",
        "ticks": 51120,
        "time": 53.25,
        "velocity": 0.7716535433070866
    },
    {
        "duration": 0.125,
        "durationTicks": 120,
        "midi": 50,
        "name": "D3",
        "ticks": 51360,
        "time": 53.5,
        "velocity": 0.7716535433070866
    },
    {
        "duration": 0.15625,
        "durationTicks": 150,
        "midi": 51,
        "name": "D#3",
        "ticks": 52080,
        "time": 54.25,
        "velocity": 0.7716535433070866
    },
    {
        "duration": 0.15625,
        "durationTicks": 150,
        "midi": 51,
        "name": "D#3",
        "ticks": 52320,
        "time": 54.5,
        "velocity": 0.7716535433070866
    },
    {
        "duration": 0.15625,
        "durationTicks": 150,
        "midi": 50,
        "name": "D3",
        "ticks": 52560,
        "time": 54.75,
        "velocity": 0.7716535433070866
    },
    {
        "duration": 0.125,
        "durationTicks": 120,
        "midi": 50,
        "name": "D3",
        "ticks": 52800,
        "time": 55,
        "velocity": 0.7716535433070866
    },
    {
        "duration": 0.21875,
        "durationTicks": 210,
        "midi": 46,
        "name": "A#2",
        "ticks": 53280,
        "time": 55.5,
        "velocity": 0.7716535433070866
    },
    {
        "duration": 0.15625,
        "durationTicks": 150,
        "midi": 50,
        "name": "D3",
        "ticks": 54480,
        "time": 56.75,
        "velocity": 0.7716535433070866
    },
    {
        "duration": 0.15625,
        "durationTicks": 150,
        "midi": 50,
        "name": "D3",
        "ticks": 54720,
        "time": 57,
        "velocity": 0.7716535433070866
    },
    {
        "duration": 0.15625,
        "durationTicks": 150,
        "midi": 48,
        "name": "C3",
        "ticks": 54960,
        "time": 57.25,
        "velocity": 0.7716535433070866
    },
    {
        "duration": 0.125,
        "durationTicks": 120,
        "midi": 48,
        "name": "C3",
        "ticks": 55200,
        "time": 57.5,
        "velocity": 0.7716535433070866
    },
    {
        "duration": 0.15625,
        "durationTicks": 150,
        "midi": 50,
        "name": "D3",
        "ticks": 55920,
        "time": 58.25,
        "velocity": 0.7716535433070866
    },
    {
        "duration": 0.15625,
        "durationTicks": 150,
        "midi": 50,
        "name": "D3",
        "ticks": 56160,
        "time": 58.5,
        "velocity": 0.7716535433070866
    },
    {
        "duration": 0.15625,
        "durationTicks": 150,
        "midi": 48,
        "name": "C3",
        "ticks": 56400,
        "time": 58.75,
        "velocity": 0.7716535433070866
    },
    {
        "duration": 0.125,
        "durationTicks": 120,
        "midi": 48,
        "name": "C3",
        "ticks": 56640,
        "time": 59,
        "velocity": 0.7716535433070866
    },
    {
        "duration": 0.125,
        "durationTicks": 120,
        "midi": 48,
        "name": "C3",
        "ticks": 57120,
        "time": 59.5,
        "velocity": 0.7716535433070866
    },
    {
        "duration": 0.15625,
        "durationTicks": 150,
        "midi": 50,
        "name": "D3",
        "ticks": 57600,
        "time": 60,
        "velocity": 0.7716535433070866
    },
    {
        "duration": 0.15625,
        "durationTicks": 150,
        "midi": 51,
        "name": "D#3",
        "ticks": 58320,
        "time": 60.75,
        "velocity": 0.7716535433070866
    },
    {
        "duration": 0.15625,
        "durationTicks": 150,
        "midi": 51,
        "name": "D#3",
        "ticks": 58560,
        "time": 61,
        "velocity": 0.7716535433070866
    },
    {
        "duration": 0.15625,
        "durationTicks": 150,
        "midi": 50,
        "name": "D3",
        "ticks": 58800,
        "time": 61.25,
        "velocity": 0.7716535433070866
    },
    {
        "duration": 0.125,
        "durationTicks": 120,
        "midi": 50,
        "name": "D3",
        "ticks": 59040,
        "time": 61.5,
        "velocity": 0.7716535433070866
    },
    {
        "duration": 0.15625,
        "durationTicks": 150,
        "midi": 51,
        "name": "D#3",
        "ticks": 59760,
        "time": 62.25,
        "velocity": 0.7716535433070866
    },
    {
        "duration": 0.15625,
        "durationTicks": 150,
        "midi": 51,
        "name": "D#3",
        "ticks": 60000,
        "time": 62.5,
        "velocity": 0.7716535433070866
    },
    {
        "duration": 0.15625,
        "durationTicks": 150,
        "midi": 50,
        "name": "D3",
        "ticks": 60240,
        "time": 62.75,
        "velocity": 0.7716535433070866
    },
    {
        "duration": 0.125,
        "durationTicks": 120,
        "midi": 50,
        "name": "D3",
        "ticks": 60480,
        "time": 63,
        "velocity": 0.7716535433070866
    },
    {
        "duration": 0.21875,
        "durationTicks": 210,
        "midi": 46,
        "name": "A#2",
        "ticks": 60960,
        "time": 63.5,
        "velocity": 0.7716535433070866
    },
    {
        "duration": 0.15625,
        "durationTicks": 150,
        "midi": 50,
        "name": "D3",
        "ticks": 62160,
        "time": 64.75,
        "velocity": 0.7716535433070866
    },
    {
        "duration": 0.15625,
        "durationTicks": 150,
        "midi": 50,
        "name": "D3",
        "ticks": 62400,
        "time": 65,
        "velocity": 0.7716535433070866
    },
    {
        "duration": 0.15625,
        "durationTicks": 150,
        "midi": 48,
        "name": "C3",
        "ticks": 62640,
        "time": 65.25,
        "velocity": 0.7716535433070866
    },
    {
        "duration": 0.125,
        "durationTicks": 120,
        "midi": 48,
        "name": "C3",
        "ticks": 62880,
        "time": 65.5,
        "velocity": 0.7716535433070866
    },
    {
        "duration": 0.15625,
        "durationTicks": 150,
        "midi": 50,
        "name": "D3",
        "ticks": 63600,
        "time": 66.25,
        "velocity": 0.7716535433070866
    },
    {
        "duration": 0.15625,
        "durationTicks": 150,
        "midi": 50,
        "name": "D3",
        "ticks": 63840,
        "time": 66.5,
        "velocity": 0.7716535433070866
    },
    {
        "duration": 0.15625,
        "durationTicks": 150,
        "midi": 48,
        "name": "C3",
        "ticks": 64080,
        "time": 66.75,
        "velocity": 0.7716535433070866
    },
    {
        "duration": 0.125,
        "durationTicks": 120,
        "midi": 48,
        "name": "C3",
        "ticks": 64320,
        "time": 67,
        "velocity": 0.7716535433070866
    },
    {
        "duration": 0.125,
        "durationTicks": 120,
        "midi": 48,
        "name": "C3",
        "ticks": 64800,
        "time": 67.5,
        "velocity": 0.7716535433070866
    },
    {
        "duration": 0.15625,
        "durationTicks": 150,
        "midi": 50,
        "name": "D3",
        "ticks": 65280,
        "time": 68,
        "velocity": 0.7716535433070866
    },
    {
        "duration": 0.15625,
        "durationTicks": 150,
        "midi": 51,
        "name": "D#3",
        "ticks": 66000,
        "time": 68.75,
        "velocity": 0.7716535433070866
    },
    {
        "duration": 0.15625,
        "durationTicks": 150,
        "midi": 51,
        "name": "D#3",
        "ticks": 66240,
        "time": 69,
        "velocity": 0.7716535433070866
    },
    {
        "duration": 0.15625,
        "durationTicks": 150,
        "midi": 50,
        "name": "D3",
        "ticks": 66480,
        "time": 69.25,
        "velocity": 0.7716535433070866
    },
    {
        "duration": 0.125,
        "durationTicks": 120,
        "midi": 50,
        "name": "D3",
        "ticks": 66720,
        "time": 69.5,
        "velocity": 0.7716535433070866
    },
    {
        "duration": 0.15625,
        "durationTicks": 150,
        "midi": 51,
        "name": "D#3",
        "ticks": 67440,
        "time": 70.25,
        "velocity": 0.7716535433070866
    },
    {
        "duration": 0.15625,
        "durationTicks": 150,
        "midi": 51,
        "name": "D#3",
        "ticks": 67680,
        "time": 70.5,
        "velocity": 0.7716535433070866
    },
    {
        "duration": 0.15625,
        "durationTicks": 150,
        "midi": 50,
        "name": "D3",
        "ticks": 67920,
        "time": 70.75,
        "velocity": 0.7716535433070866
    },
    {
        "duration": 0.125,
        "durationTicks": 120,
        "midi": 50,
        "name": "D3",
        "ticks": 68160,
        "time": 71,
        "velocity": 0.7716535433070866
    },
    {
        "duration": 0.21875,
        "durationTicks": 210,
        "midi": 46,
        "name": "A#2",
        "ticks": 68640,
        "time": 71.5,
        "velocity": 0.7716535433070866
    },
    {
        "duration": 0.15625,
        "durationTicks": 150,
        "midi": 50,
        "name": "D3",
        "ticks": 69840,
        "time": 72.75,
        "velocity": 0.7716535433070866
    },
    {
        "duration": 0.15625,
        "durationTicks": 150,
        "midi": 50,
        "name": "D3",
        "ticks": 70080,
        "time": 73,
        "velocity": 0.7716535433070866
    },
    {
        "duration": 0.15625,
        "durationTicks": 150,
        "midi": 48,
        "name": "C3",
        "ticks": 70320,
        "time": 73.25,
        "velocity": 0.7716535433070866
    },
    {
        "duration": 0.125,
        "durationTicks": 120,
        "midi": 48,
        "name": "C3",
        "ticks": 70560,
        "time": 73.5,
        "velocity": 0.7716535433070866
    },
    {
        "duration": 0.15625,
        "durationTicks": 150,
        "midi": 50,
        "name": "D3",
        "ticks": 71280,
        "time": 74.25,
        "velocity": 0.7716535433070866
    },
    {
        "duration": 0.15625,
        "durationTicks": 150,
        "midi": 50,
        "name": "D3",
        "ticks": 71520,
        "time": 74.5,
        "velocity": 0.7716535433070866
    },
    {
        "duration": 0.15625,
        "durationTicks": 150,
        "midi": 48,
        "name": "C3",
        "ticks": 71760,
        "time": 74.75,
        "velocity": 0.7716535433070866
    },
    {
        "duration": 0.125,
        "durationTicks": 120,
        "midi": 48,
        "name": "C3",
        "ticks": 72000,
        "time": 75,
        "velocity": 0.7716535433070866
    },
    {
        "duration": 0.125,
        "durationTicks": 120,
        "midi": 48,
        "name": "C3",
        "ticks": 72480,
        "time": 75.5,
        "velocity": 0.7716535433070866
    },
    {
        "duration": 0.15625,
        "durationTicks": 150,
        "midi": 50,
        "name": "D3",
        "ticks": 72960,
        "time": 76,
        "velocity": 0.7716535433070866
    },
    {
        "duration": 0.15625,
        "durationTicks": 150,
        "midi": 51,
        "name": "D#3",
        "ticks": 73680,
        "time": 76.75,
        "velocity": 0.7716535433070866
    },
    {
        "duration": 0.15625,
        "durationTicks": 150,
        "midi": 51,
        "name": "D#3",
        "ticks": 73920,
        "time": 77,
        "velocity": 0.7716535433070866
    },
    {
        "duration": 0.15625,
        "durationTicks": 150,
        "midi": 50,
        "name": "D3",
        "ticks": 74160,
        "time": 77.25,
        "velocity": 0.7716535433070866
    },
    {
        "duration": 0.125,
        "durationTicks": 120,
        "midi": 50,
        "name": "D3",
        "ticks": 74400,
        "time": 77.5,
        "velocity": 0.7716535433070866
    },
    {
        "duration": 0.15625,
        "durationTicks": 150,
        "midi": 51,
        "name": "D#3",
        "ticks": 75120,
        "time": 78.25,
        "velocity": 0.7716535433070866
    },
    {
        "duration": 0.15625,
        "durationTicks": 150,
        "midi": 51,
        "name": "D#3",
        "ticks": 75360,
        "time": 78.5,
        "velocity": 0.7716535433070866
    },
    {
        "duration": 0.15625,
        "durationTicks": 150,
        "midi": 50,
        "name": "D3",
        "ticks": 75600,
        "time": 78.75,
        "velocity": 0.7716535433070866
    },
    {
        "duration": 0.125,
        "durationTicks": 120,
        "midi": 50,
        "name": "D3",
        "ticks": 75840,
        "time": 79,
        "velocity": 0.7716535433070866
    },
    {
        "duration": 0.21875,
        "durationTicks": 210,
        "midi": 46,
        "name": "A#2",
        "ticks": 76320,
        "time": 79.5,
        "velocity": 0.7716535433070866
    }
]
